<svg xmlns="http://www.w3.org/2000/svg" xmlns:xlink="http://www.w3.org/1999/xlink" width="500" zoomAndPan="magnify" viewBox="0 0 375 374.999991" height="500" preserveAspectRatio="xMidYMid meet" version="1.0"><defs><g/><clipPath id="a23bd4c99f"><path d="M 81 170.503906 L 96 170.503906 L 96 181 L 81 181 Z M 81 170.503906 " clip-rule="nonzero"/></clipPath><clipPath id="09afefe43b"><path d="M 92 196 L 101 196 L 101 208.753906 L 92 208.753906 Z M 92 196 " clip-rule="nonzero"/></clipPath><clipPath id="0f27b2ce30"><path d="M 52.398438 152 L 113 152 L 113 223.183594 L 52.398438 223.183594 Z M 52.398438 152 " clip-rule="nonzero"/></clipPath><clipPath id="d379090b39"><rect x="0" width="151" y="0" height="14"/></clipPath></defs><path fill="#000000" d="M 78.339844 191.394531 C 78.40625 191.394531 78.449219 191.375 78.496094 191.328125 C 78.585938 191.261719 78.585938 191.128906 78.539062 191.039062 L 78.515625 191.015625 C 77.710938 189.515625 76.503906 188.019531 75.320312 186.8125 C 72.992188 184.484375 70.195312 182.808594 67.042969 181.914062 C 66.90625 181.890625 66.796875 181.957031 66.75 182.070312 C 66.730469 182.203125 66.796875 182.335938 66.90625 182.359375 C 69.996094 183.230469 72.722656 184.863281 74.984375 187.125 C 76.167969 188.308594 77.332031 189.761719 78.113281 191.238281 C 78.136719 191.285156 78.160156 191.308594 78.183594 191.328125 C 78.226562 191.375 78.269531 191.394531 78.339844 191.394531 Z M 78.339844 191.394531 " fill-opacity="1" fill-rule="evenodd"/><g clip-path="url(#a23bd4c99f)"><path fill="#000000" d="M 95.539062 180.570312 C 95.585938 180.570312 95.605469 180.546875 95.652344 180.527344 C 95.761719 180.480469 95.808594 180.347656 95.742188 180.234375 C 95.515625 179.765625 95.203125 179.273438 94.914062 178.847656 C 94.175781 177.773438 93.324219 176.746094 92.386719 175.851562 C 89.34375 172.875 85.496094 171.042969 81.269531 170.527344 C 81.15625 170.503906 81.046875 170.59375 81.023438 170.726562 C 81 170.863281 81.089844 170.972656 81.222656 170.972656 C 85.339844 171.488281 89.074219 173.253906 92.050781 176.140625 C 92.96875 177.035156 93.796875 178.042969 94.53125 179.09375 C 94.800781 179.496094 95.113281 179.988281 95.339844 180.4375 C 95.382812 180.503906 95.449219 180.570312 95.539062 180.570312 Z M 95.539062 180.570312 " fill-opacity="1" fill-rule="evenodd"/></g><path fill="#000000" d="M 86.503906 192.894531 L 87.890625 195.265625 C 87.980469 195.46875 88.15625 195.578125 88.359375 195.644531 C 88.671875 195.714844 88.984375 195.644531 89.230469 195.511719 L 89.703125 195.222656 C 89.746094 195.199219 89.8125 195.175781 89.878906 195.199219 C 89.925781 195.222656 89.992188 195.265625 90.015625 195.3125 L 90.953125 196.945312 L 90.953125 196.964844 C 91.132812 197.234375 91.535156 197.210938 91.78125 197.078125 L 94.308594 195.625 L 94.308594 195.601562 C 94.464844 195.535156 94.601562 195.378906 94.644531 195.199219 C 94.667969 195.066406 94.667969 194.929688 94.601562 194.820312 L 93.660156 193.207031 C 93.636719 193.140625 93.636719 193.097656 93.636719 193.03125 C 93.660156 192.960938 93.707031 192.917969 93.75 192.894531 L 94.199219 192.648438 C 94.644531 192.378906 94.957031 191.820312 94.691406 191.351562 L 93.304688 188.957031 Z M 89.746094 193.902344 C 89.722656 193.925781 89.679688 193.945312 89.632812 193.945312 C 89.546875 193.945312 89.476562 193.902344 89.433594 193.835938 C 89.367188 193.722656 89.410156 193.589844 89.5 193.519531 L 92.296875 191.800781 C 92.40625 191.730469 92.566406 191.753906 92.632812 191.867188 C 92.675781 191.976562 92.652344 192.113281 92.542969 192.179688 Z M 89.746094 193.902344 " fill-opacity="1" fill-rule="evenodd"/><g clip-path="url(#09afefe43b)"><path fill="#000000" d="M 92.207031 197.367188 L 98.402344 208.082031 C 98.558594 208.375 98.828125 208.574219 99.140625 208.664062 C 99.453125 208.753906 99.789062 208.710938 100.082031 208.53125 C 100.347656 208.375 100.574219 208.105469 100.640625 207.792969 C 100.730469 207.480469 100.683594 207.144531 100.527344 206.875 L 100.503906 206.875 L 94.332031 196.136719 Z M 92.207031 197.367188 " fill-opacity="1" fill-rule="evenodd"/></g><path fill="#000000" d="M 93.28125 188.421875 C 93.304688 188.398438 93.324219 188.398438 93.371094 188.398438 L 98.269531 185.558594 L 97.574219 184.328125 L 80.375 194.257812 L 81.089844 195.46875 L 85.988281 192.648438 C 86.011719 192.625 86.03125 192.605469 86.054688 192.582031 C 86.078125 192.582031 86.101562 192.558594 86.121094 192.558594 L 93.214844 188.488281 C 93.214844 188.464844 93.234375 188.445312 93.28125 188.421875 Z M 93.28125 188.421875 " fill-opacity="1" fill-rule="evenodd"/><path fill="#000000" d="M 80.148438 193.855469 L 97.328125 183.925781 L 96.613281 182.671875 L 79.433594 192.625 Z M 80.148438 193.855469 " fill-opacity="1" fill-rule="evenodd"/><path fill="#000000" d="M 86.769531 179.382812 L 87.332031 178.421875 C 87.351562 178.402344 87.375 178.355469 87.398438 178.355469 L 88.382812 177.796875 L 87.398438 177.238281 C 87.375 177.214844 87.351562 177.191406 87.332031 177.148438 L 86.769531 176.1875 L 86.210938 177.148438 C 86.191406 177.191406 86.167969 177.214844 86.121094 177.238281 L 85.160156 177.796875 L 86.121094 178.355469 C 86.167969 178.355469 86.191406 178.402344 86.210938 178.421875 Z M 86.769531 179.382812 " fill-opacity="1" fill-rule="evenodd"/><path fill="#000000" d="M 81.378906 182.582031 C 81.359375 182.5625 81.3125 182.539062 81.289062 182.515625 L 80.484375 181.105469 L 79.703125 182.492188 C 79.679688 182.539062 79.65625 182.5625 79.613281 182.582031 L 78.226562 183.386719 L 79.613281 184.214844 C 79.65625 184.238281 79.679688 184.261719 79.703125 184.285156 L 80.484375 185.671875 L 81.289062 184.285156 C 81.3125 184.261719 81.359375 184.238281 81.378906 184.214844 L 82.789062 183.386719 Z M 81.378906 182.582031 " fill-opacity="1" fill-rule="evenodd"/><path fill="#000000" d="M 77.421875 175.671875 L 78.605469 174.976562 L 77.421875 174.285156 C 77.375 174.261719 77.355469 174.21875 77.332031 174.195312 L 76.636719 173.007812 L 75.945312 174.195312 C 75.921875 174.21875 75.898438 174.261719 75.855469 174.285156 L 74.671875 174.976562 L 75.855469 175.671875 C 75.898438 175.695312 75.921875 175.714844 75.945312 175.738281 L 76.636719 176.945312 L 77.332031 175.738281 C 77.355469 175.714844 77.375 175.695312 77.421875 175.671875 Z M 77.421875 175.671875 " fill-opacity="1" fill-rule="evenodd"/><path fill="#000000" d="M 67.734375 174.484375 L 68.675781 173.925781 L 67.734375 173.367188 C 67.691406 173.34375 67.667969 173.300781 67.644531 173.277344 L 67.085938 172.316406 L 66.527344 173.277344 C 66.503906 173.300781 66.484375 173.34375 66.460938 173.367188 L 65.5 173.925781 L 66.460938 174.464844 C 66.484375 174.484375 66.503906 174.53125 66.527344 174.554688 L 67.085938 175.515625 L 67.644531 174.554688 C 67.667969 174.53125 67.691406 174.484375 67.734375 174.484375 Z M 67.734375 174.484375 " fill-opacity="1" fill-rule="evenodd"/><path fill="#000000" d="M 70.664062 189.160156 L 70.105469 188.199219 L 69.546875 189.160156 C 69.546875 189.183594 69.503906 189.203125 69.480469 189.226562 L 68.519531 189.785156 L 69.480469 190.34375 C 69.503906 190.367188 69.546875 190.390625 69.570312 190.433594 L 70.105469 191.394531 L 70.664062 190.433594 C 70.6875 190.390625 70.710938 190.367188 70.753906 190.34375 L 71.695312 189.785156 L 70.753906 189.226562 C 70.734375 189.203125 70.6875 189.183594 70.664062 189.160156 Z M 70.664062 189.160156 " fill-opacity="1" fill-rule="evenodd"/><path fill="#000000" d="M 95.003906 174.375 L 95.988281 174.933594 C 96.007812 174.957031 96.03125 174.976562 96.054688 175.023438 L 96.613281 175.984375 L 97.171875 175.023438 C 97.195312 174.976562 97.21875 174.957031 97.261719 174.933594 L 98.222656 174.375 L 97.261719 173.816406 C 97.21875 173.792969 97.195312 173.769531 97.171875 173.726562 L 96.613281 172.785156 L 96.054688 173.726562 C 96.03125 173.769531 96.007812 173.792969 95.988281 173.816406 Z M 95.003906 174.375 " fill-opacity="1" fill-rule="evenodd"/><g clip-path="url(#0f27b2ce30)"><path fill="#004aad" d="M 112.773438 171.523438 C 112.851562 173.074219 112.75 174.6875 112.621094 176.292969 C 112.324219 179.96875 111.777344 183.601562 110.871094 187.179688 C 109.773438 191.53125 108.226562 195.714844 106.171875 199.703125 C 104.425781 203.101562 102.351562 206.285156 99.902344 209.222656 C 98.746094 210.605469 97.570312 211.964844 96.273438 213.21875 C 93.335938 216.0625 90.160156 218.609375 86.683594 220.769531 C 85.542969 221.480469 84.367188 222.136719 83.214844 222.832031 C 82.835938 223.0625 82.523438 223.066406 82.128906 222.847656 C 78.6875 220.960938 75.433594 218.796875 72.421875 216.285156 C 69.363281 213.730469 66.609375 210.878906 64.1875 207.703125 C 61.933594 204.746094 60.007812 201.589844 58.398438 198.242188 C 57.042969 195.417969 55.945312 192.496094 55.0625 189.492188 C 54.261719 186.769531 53.65625 184.003906 53.234375 181.199219 C 52.992188 179.566406 52.789062 177.921875 52.683594 176.269531 C 52.550781 174.246094 52.40625 172.222656 52.480469 170.199219 C 52.539062 168.691406 52.59375 167.183594 52.789062 165.683594 C 52.871094 165.027344 52.902344 164.367188 52.96875 163.707031 C 53.019531 163.183594 53.097656 163.117188 53.625 163.097656 C 53.808594 163.089844 53.996094 163.085938 54.183594 163.097656 C 55.609375 163.171875 57.039062 163.054688 58.457031 162.949219 C 63.296875 162.597656 67.960938 161.503906 72.371094 159.410156 C 75.0625 158.128906 77.550781 156.554688 79.789062 154.589844 C 80.59375 153.878906 81.359375 153.121094 82.144531 152.382812 C 82.613281 151.941406 82.679688 151.933594 83.164062 152.382812 C 84.242188 153.378906 85.265625 154.441406 86.410156 155.359375 C 89.742188 158.039062 93.488281 159.929688 97.554688 161.222656 C 99.46875 161.832031 101.417969 162.292969 103.40625 162.566406 C 104.976562 162.785156 106.558594 162.945312 108.152344 163.007812 C 109.328125 163.054688 110.503906 163.074219 111.683594 163.097656 C 112.1875 163.109375 112.183594 163.132812 112.308594 163.664062 C 112.46875 164.332031 112.429688 165.019531 112.507812 165.699219 C 112.734375 167.609375 112.832031 169.53125 112.773438 171.523438 Z M 107.273438 174.464844 C 107.292969 172.726562 107.257812 171.132812 107.109375 169.546875 C 107.066406 169.070312 107.03125 168.597656 106.976562 168.125 C 106.917969 167.628906 106.84375 167.574219 106.324219 167.476562 C 106.019531 167.417969 105.710938 167.414062 105.398438 167.40625 C 104.261719 167.386719 103.128906 167.414062 101.988281 167.304688 C 99.675781 167.082031 97.394531 166.699219 95.175781 166.007812 C 91.640625 164.90625 88.371094 163.292969 85.523438 160.902344 C 84.667969 160.183594 83.878906 159.386719 83.058594 158.628906 C 82.679688 158.28125 82.664062 158.28125 82.296875 158.621094 C 81.734375 159.140625 81.175781 159.664062 80.621094 160.191406 C 79.71875 161.050781 78.726562 161.796875 77.691406 162.488281 C 75.171875 164.164062 72.425781 165.347656 69.527344 166.199219 C 67.695312 166.734375 65.816406 167.035156 63.925781 167.261719 C 62.609375 167.417969 61.285156 167.433594 59.960938 167.40625 C 59.605469 167.398438 59.257812 167.449219 58.910156 167.484375 C 58.570312 167.519531 58.429688 167.695312 58.398438 167.996094 C 58.359375 168.386719 58.351562 168.78125 58.296875 169.167969 C 58.101562 170.667969 58.085938 172.179688 58 173.6875 C 57.953125 174.46875 58.03125 175.257812 58.070312 176.042969 C 58.128906 177.28125 58.195312 178.519531 58.316406 179.757812 C 58.582031 182.4375 59.042969 185.082031 59.71875 187.695312 C 61.289062 193.78125 63.871094 199.382812 67.6875 204.394531 C 69.589844 206.890625 71.742188 209.152344 74.125 211.195312 C 76.601562 213.316406 79.300781 215.113281 82.125 216.742188 C 82.519531 216.96875 82.804688 216.960938 83.195312 216.742188 C 87.648438 214.238281 91.671875 211.1875 95.128906 207.40625 C 97.644531 204.65625 99.78125 201.640625 101.523438 198.347656 C 102.96875 195.613281 104.128906 192.765625 105.035156 189.804688 C 105.871094 187.0625 106.441406 184.269531 106.847656 181.441406 C 107.183594 179.082031 107.328125 176.707031 107.273438 174.464844 Z M 107.273438 174.464844 " fill-opacity="1" fill-rule="nonzero"/></g><g fill="#000000" fill-opacity="1"><g transform="translate(124.076994, 204.193638)"><g><path d="M 1.421875 -24.015625 L 1.421875 -29.09375 L 25.3125 -29.09375 L 25.3125 -24.015625 L 16.40625 -24.015625 L 16.40625 0 L 10.328125 0 L 10.328125 -24.015625 Z M 1.421875 -24.015625 "/></g></g></g><g fill="#000000" fill-opacity="1"><g transform="translate(148.534802, 204.193638)"><g><path d="M 2.421875 0 L 2.421875 -21.8125 L 8.28125 -21.8125 L 8.28125 -18.015625 L 8.515625 -18.015625 C 8.910156 -19.367188 9.570312 -20.390625 10.5 -21.078125 C 11.4375 -21.773438 12.519531 -22.125 13.75 -22.125 C 14.332031 -22.125 14.875 -22.050781 15.375 -21.90625 C 15.882812 -21.769531 16.335938 -21.578125 16.734375 -21.328125 L 14.921875 -16.328125 C 14.628906 -16.472656 14.316406 -16.59375 13.984375 -16.6875 C 13.648438 -16.789062 13.273438 -16.84375 12.859375 -16.84375 C 11.628906 -16.84375 10.59375 -16.425781 9.75 -15.59375 C 8.90625 -14.757812 8.476562 -13.675781 8.46875 -12.34375 L 8.46875 0 Z M 2.421875 0 "/></g></g></g><g fill="#000000" fill-opacity="1"><g transform="translate(165.67805, 204.193638)"><g><path d="M 16.40625 -9.296875 L 16.40625 -21.8125 L 22.453125 -21.8125 L 22.453125 0 L 16.640625 0 L 16.640625 -3.96875 L 16.421875 -3.96875 C 15.929688 -2.6875 15.113281 -1.65625 13.96875 -0.875 C 12.832031 -0.101562 11.441406 0.28125 9.796875 0.28125 C 7.597656 0.28125 5.816406 -0.445312 4.453125 -1.90625 C 3.097656 -3.375 2.421875 -5.378906 2.421875 -7.921875 L 2.421875 -21.8125 L 8.46875 -21.8125 L 8.46875 -9 C 8.476562 -7.71875 8.820312 -6.703125 9.5 -5.953125 C 10.1875 -5.203125 11.101562 -4.828125 12.25 -4.828125 C 13.332031 -4.828125 14.296875 -5.207031 15.140625 -5.96875 C 15.992188 -6.726562 16.414062 -7.835938 16.40625 -9.296875 Z M 16.40625 -9.296875 "/></g></g></g><g fill="#000000" fill-opacity="1"><g transform="translate(190.547834, 204.193638)"><g><path d="M 20.5625 -15.59375 L 15.03125 -15.25 C 14.875 -15.957031 14.488281 -16.5625 13.875 -17.0625 C 13.257812 -17.5625 12.425781 -17.8125 11.375 -17.8125 C 10.4375 -17.8125 9.644531 -17.613281 9 -17.21875 C 8.351562 -16.832031 8.035156 -16.3125 8.046875 -15.65625 C 8.035156 -15.132812 8.238281 -14.691406 8.65625 -14.328125 C 9.082031 -13.972656 9.800781 -13.6875 10.8125 -13.46875 L 14.765625 -12.671875 C 18.953125 -11.804688 21.050781 -9.835938 21.0625 -6.765625 C 21.0625 -5.328125 20.640625 -4.066406 19.796875 -2.984375 C 18.960938 -1.910156 17.816406 -1.070312 16.359375 -0.46875 C 14.898438 0.125 13.226562 0.421875 11.34375 0.421875 C 8.457031 0.421875 6.15625 -0.179688 4.4375 -1.390625 C 2.726562 -2.597656 1.734375 -4.242188 1.453125 -6.328125 L 7.40625 -6.640625 C 7.59375 -5.742188 8.03125 -5.066406 8.71875 -4.609375 C 9.40625 -4.160156 10.285156 -3.9375 11.359375 -3.9375 C 12.421875 -3.9375 13.273438 -4.144531 13.921875 -4.5625 C 14.578125 -4.976562 14.910156 -5.507812 14.921875 -6.15625 C 14.890625 -7.226562 13.953125 -7.953125 12.109375 -8.328125 L 8.34375 -9.078125 C 4.113281 -9.921875 2.007812 -12 2.03125 -15.3125 C 2.019531 -17.414062 2.859375 -19.070312 4.546875 -20.28125 C 6.242188 -21.5 8.488281 -22.109375 11.28125 -22.109375 C 14.03125 -22.109375 16.195312 -21.523438 17.78125 -20.359375 C 19.375 -19.191406 20.300781 -17.601562 20.5625 -15.59375 Z M 20.5625 -15.59375 "/></g></g></g><g fill="#000000" fill-opacity="1"><g transform="translate(213.017277, 204.193638)"><g><path d="M 14.015625 -21.8125 L 14.015625 -17.265625 L 9.921875 -17.265625 L 9.921875 -6.703125 C 9.921875 -5.867188 10.109375 -5.304688 10.484375 -5.015625 C 10.859375 -4.722656 11.347656 -4.578125 11.953125 -4.578125 C 12.242188 -4.578125 12.53125 -4.601562 12.8125 -4.65625 C 13.09375 -4.707031 13.3125 -4.742188 13.46875 -4.765625 L 14.421875 -0.265625 C 14.117188 -0.171875 13.691406 -0.0625 13.140625 0.0625 C 12.585938 0.1875 11.921875 0.265625 11.140625 0.296875 C 8.941406 0.390625 7.175781 -0.0820312 5.84375 -1.125 C 4.507812 -2.175781 3.847656 -3.769531 3.859375 -5.90625 L 3.859375 -17.265625 L 0.875 -17.265625 L 0.875 -21.8125 L 3.859375 -21.8125 L 3.859375 -27.046875 L 9.921875 -27.046875 L 9.921875 -21.8125 Z M 14.015625 -21.8125 "/></g></g></g><g fill="#004aad" fill-opacity="1"><g transform="translate(228.409018, 204.193638)"><g><path d="M 9.078125 0 L 0.75 -29.09375 L 7.46875 -29.09375 L 12.28125 -8.875 L 12.53125 -8.875 L 17.84375 -29.09375 L 23.59375 -29.09375 L 28.890625 -8.828125 L 29.140625 -8.828125 L 33.96875 -29.09375 L 40.6875 -29.09375 L 32.359375 0 L 26.359375 0 L 20.828125 -19.015625 L 20.59375 -19.015625 L 15.078125 0 Z M 9.078125 0 "/></g></g></g><g fill="#004aad" fill-opacity="1"><g transform="translate(269.839718, 204.193638)"><g><path d="M 2.421875 0 L 2.421875 -21.8125 L 8.46875 -21.8125 L 8.46875 0 Z M 5.453125 -24.625 C 4.554688 -24.625 3.785156 -24.925781 3.140625 -25.53125 C 2.503906 -26.132812 2.1875 -26.859375 2.1875 -27.703125 C 2.1875 -28.546875 2.503906 -29.265625 3.140625 -29.859375 C 3.785156 -30.453125 4.554688 -30.75 5.453125 -30.75 C 6.347656 -30.75 7.117188 -30.453125 7.765625 -29.859375 C 8.410156 -29.265625 8.734375 -28.546875 8.734375 -27.703125 C 8.734375 -26.859375 8.410156 -26.132812 7.765625 -25.53125 C 7.117188 -24.925781 6.347656 -24.625 5.453125 -24.625 Z M 5.453125 -24.625 "/></g></g></g><g fill="#004aad" fill-opacity="1"><g transform="translate(280.719363, 204.193638)"><g><path d="M 2.421875 8.1875 L 2.421875 -21.8125 L 8.375 -21.8125 L 8.375 -18.15625 L 8.65625 -18.15625 C 8.925781 -18.75 9.3125 -19.347656 9.8125 -19.953125 C 10.3125 -20.554688 10.972656 -21.066406 11.796875 -21.484375 C 12.628906 -21.898438 13.648438 -22.109375 14.859375 -22.109375 C 16.460938 -22.109375 17.929688 -21.691406 19.265625 -20.859375 C 20.597656 -20.023438 21.664062 -18.773438 22.46875 -17.109375 C 23.28125 -15.453125 23.6875 -13.375 23.6875 -10.875 C 23.6875 -8.445312 23.289062 -6.394531 22.5 -4.71875 C 21.71875 -3.050781 20.660156 -1.785156 19.328125 -0.921875 C 17.992188 -0.0664062 16.5 0.359375 14.84375 0.359375 C 13.664062 0.359375 12.664062 0.164062 11.84375 -0.21875 C 11.03125 -0.613281 10.363281 -1.101562 9.84375 -1.6875 C 9.332031 -2.28125 8.9375 -2.882812 8.65625 -3.5 L 8.46875 -3.5 L 8.46875 8.1875 Z M 8.34375 -10.90625 C 8.34375 -8.96875 8.738281 -7.40625 9.53125 -6.21875 C 10.332031 -5.039062 11.460938 -4.453125 12.921875 -4.453125 C 14.410156 -4.453125 15.546875 -5.050781 16.328125 -6.25 C 17.117188 -7.445312 17.515625 -9 17.515625 -10.90625 C 17.515625 -12.800781 17.125 -14.335938 16.34375 -15.515625 C 15.5625 -16.691406 14.421875 -17.28125 12.921875 -17.28125 C 11.453125 -17.28125 10.320312 -16.703125 9.53125 -15.546875 C 8.738281 -14.398438 8.34375 -12.851562 8.34375 -10.90625 Z M 8.34375 -10.90625 "/></g></g></g><g fill="#004aad" fill-opacity="1"><g transform="translate(306.015245, 204.193638)"><g><path d="M 12.359375 0.421875 C 10.117188 0.421875 8.1875 -0.03125 6.5625 -0.9375 C 4.945312 -1.851562 3.703125 -3.148438 2.828125 -4.828125 C 1.960938 -6.515625 1.53125 -8.507812 1.53125 -10.8125 C 1.53125 -13.050781 1.960938 -15.019531 2.828125 -16.71875 C 3.703125 -18.414062 4.929688 -19.738281 6.515625 -20.6875 C 8.109375 -21.632812 9.972656 -22.109375 12.109375 -22.109375 C 14.035156 -22.109375 15.769531 -21.695312 17.3125 -20.875 C 18.863281 -20.0625 20.09375 -18.832031 21 -17.1875 C 21.914062 -15.550781 22.375 -13.492188 22.375 -11.015625 L 22.375 -9.359375 L 7.515625 -9.359375 L 7.515625 -9.34375 C 7.515625 -7.71875 7.957031 -6.4375 8.84375 -5.5 C 9.738281 -4.5625 10.941406 -4.09375 12.453125 -4.09375 C 13.472656 -4.09375 14.347656 -4.304688 15.078125 -4.734375 C 15.816406 -5.160156 16.335938 -5.789062 16.640625 -6.625 L 22.25 -6.25 C 21.820312 -4.21875 20.738281 -2.597656 19 -1.390625 C 17.269531 -0.179688 15.054688 0.421875 12.359375 0.421875 Z M 7.515625 -13.109375 L 16.671875 -13.109375 C 16.660156 -14.410156 16.242188 -15.476562 15.421875 -16.3125 C 14.597656 -17.15625 13.53125 -17.578125 12.21875 -17.578125 C 10.875 -17.578125 9.769531 -17.140625 8.90625 -16.265625 C 8.039062 -15.398438 7.578125 -14.347656 7.515625 -13.109375 Z M 7.515625 -13.109375 "/></g></g></g><g transform="matrix(1, 0, 0, 1, 128, 208)"><g clip-path="url(#d379090b39)"><g fill="#545454" fill-opacity="1"><g transform="translate(1.059787, 9.903849)"><g><path d="M 2.484375 0 L 2.484375 -2.671875 L 0.203125 -7.03125 L 1.15625 -7.03125 L 2.90625 -3.46875 L 4.671875 -7.03125 L 5.609375 -7.03125 L 3.328125 -2.671875 L 3.328125 0 Z M 2.484375 0 "/></g></g></g><g fill="#545454" fill-opacity="1"><g transform="translate(6.844923, 9.903849)"><g><path d="M 2.96875 0.125 C 2.5 0.125 2.078125 0.0195312 1.703125 -0.1875 C 1.328125 -0.40625 1.03125 -0.710938 0.8125 -1.109375 C 0.59375 -1.503906 0.484375 -1.960938 0.484375 -2.484375 C 0.484375 -3.015625 0.59375 -3.472656 0.8125 -3.859375 C 1.03125 -4.253906 1.328125 -4.5625 1.703125 -4.78125 C 2.085938 -5 2.515625 -5.109375 2.984375 -5.109375 C 3.453125 -5.109375 3.875 -5 4.25 -4.78125 C 4.625 -4.5625 4.921875 -4.253906 5.140625 -3.859375 C 5.359375 -3.472656 5.46875 -3.015625 5.46875 -2.484375 C 5.46875 -1.960938 5.351562 -1.503906 5.125 -1.109375 C 4.90625 -0.710938 4.609375 -0.40625 4.234375 -0.1875 C 3.859375 0.0195312 3.4375 0.125 2.96875 0.125 Z M 2.96875 -0.609375 C 3.25 -0.609375 3.515625 -0.675781 3.765625 -0.8125 C 4.015625 -0.957031 4.210938 -1.171875 4.359375 -1.453125 C 4.515625 -1.734375 4.59375 -2.078125 4.59375 -2.484375 C 4.59375 -2.898438 4.519531 -3.25 4.375 -3.53125 C 4.226562 -3.8125 4.03125 -4.019531 3.78125 -4.15625 C 3.53125 -4.300781 3.265625 -4.375 2.984375 -4.375 C 2.691406 -4.375 2.421875 -4.300781 2.171875 -4.15625 C 1.929688 -4.019531 1.734375 -3.8125 1.578125 -3.53125 C 1.421875 -3.25 1.34375 -2.898438 1.34375 -2.484375 C 1.34375 -2.078125 1.421875 -1.734375 1.578125 -1.453125 C 1.734375 -1.171875 1.929688 -0.957031 2.171875 -0.8125 C 2.421875 -0.675781 2.6875 -0.609375 2.96875 -0.609375 Z M 2.96875 -0.609375 "/></g></g></g><g fill="#545454" fill-opacity="1"><g transform="translate(13.635053, 9.903849)"><g><path d="M 2.515625 0.125 C 1.921875 0.125 1.445312 -0.0507812 1.09375 -0.40625 C 0.75 -0.769531 0.578125 -1.320312 0.578125 -2.0625 L 0.578125 -4.984375 L 1.421875 -4.984375 L 1.421875 -2.15625 C 1.421875 -1.125 1.847656 -0.609375 2.703125 -0.609375 C 3.140625 -0.609375 3.5 -0.757812 3.78125 -1.0625 C 4.0625 -1.375 4.203125 -1.820312 4.203125 -2.40625 L 4.203125 -4.984375 L 5.046875 -4.984375 L 5.046875 0 L 4.296875 0 L 4.234375 -0.890625 C 4.078125 -0.578125 3.84375 -0.328125 3.53125 -0.140625 C 3.226562 0.0351562 2.890625 0.125 2.515625 0.125 Z M 2.515625 0.125 "/></g></g></g><g fill="#545454" fill-opacity="1"><g transform="translate(20.224319, 9.903849)"><g><path d="M 0.6875 0 L 0.6875 -4.984375 L 1.453125 -4.984375 L 1.53125 -4.03125 C 1.6875 -4.351562 1.921875 -4.613281 2.234375 -4.8125 C 2.546875 -5.007812 2.929688 -5.109375 3.390625 -5.109375 L 3.390625 -4.21875 L 3.171875 -4.21875 C 2.867188 -4.21875 2.59375 -4.164062 2.34375 -4.0625 C 2.101562 -3.957031 1.90625 -3.78125 1.75 -3.53125 C 1.601562 -3.289062 1.53125 -2.953125 1.53125 -2.515625 L 1.53125 0 Z M 0.6875 0 "/></g></g></g><g fill="#545454" fill-opacity="1"><g transform="translate(24.714598, 9.903849)"><g/></g></g><g fill="#545454" fill-opacity="1"><g transform="translate(28.220659, 9.903849)"><g><path d="M 2.96875 0.125 C 2.5 0.125 2.078125 0.0195312 1.703125 -0.1875 C 1.328125 -0.40625 1.03125 -0.710938 0.8125 -1.109375 C 0.59375 -1.503906 0.484375 -1.960938 0.484375 -2.484375 C 0.484375 -3.015625 0.59375 -3.472656 0.8125 -3.859375 C 1.03125 -4.253906 1.328125 -4.5625 1.703125 -4.78125 C 2.085938 -5 2.515625 -5.109375 2.984375 -5.109375 C 3.453125 -5.109375 3.875 -5 4.25 -4.78125 C 4.625 -4.5625 4.921875 -4.253906 5.140625 -3.859375 C 5.359375 -3.472656 5.46875 -3.015625 5.46875 -2.484375 C 5.46875 -1.960938 5.351562 -1.503906 5.125 -1.109375 C 4.90625 -0.710938 4.609375 -0.40625 4.234375 -0.1875 C 3.859375 0.0195312 3.4375 0.125 2.96875 0.125 Z M 2.96875 -0.609375 C 3.25 -0.609375 3.515625 -0.675781 3.765625 -0.8125 C 4.015625 -0.957031 4.210938 -1.171875 4.359375 -1.453125 C 4.515625 -1.734375 4.59375 -2.078125 4.59375 -2.484375 C 4.59375 -2.898438 4.519531 -3.25 4.375 -3.53125 C 4.226562 -3.8125 4.03125 -4.019531 3.78125 -4.15625 C 3.53125 -4.300781 3.265625 -4.375 2.984375 -4.375 C 2.691406 -4.375 2.421875 -4.300781 2.171875 -4.15625 C 1.929688 -4.019531 1.734375 -3.8125 1.578125 -3.53125 C 1.421875 -3.25 1.34375 -2.898438 1.34375 -2.484375 C 1.34375 -2.078125 1.421875 -1.734375 1.578125 -1.453125 C 1.734375 -1.171875 1.929688 -0.957031 2.171875 -0.8125 C 2.421875 -0.675781 2.6875 -0.609375 2.96875 -0.609375 Z M 2.96875 -0.609375 "/></g></g></g><g fill="#545454" fill-opacity="1"><g transform="translate(35.010789, 9.903849)"><g><path d="M 0.6875 0 L 0.6875 -4.984375 L 1.453125 -4.984375 L 1.5 -4.09375 C 1.664062 -4.40625 1.898438 -4.648438 2.203125 -4.828125 C 2.503906 -5.015625 2.84375 -5.109375 3.21875 -5.109375 C 3.8125 -5.109375 4.285156 -4.925781 4.640625 -4.5625 C 4.992188 -4.207031 5.171875 -3.65625 5.171875 -2.90625 L 5.171875 0 L 4.3125 0 L 4.3125 -2.828125 C 4.3125 -3.859375 3.882812 -4.375 3.03125 -4.375 C 2.601562 -4.375 2.242188 -4.21875 1.953125 -3.90625 C 1.671875 -3.601562 1.53125 -3.160156 1.53125 -2.578125 L 1.53125 0 Z M 0.6875 0 "/></g></g></g><g fill="#545454" fill-opacity="1"><g transform="translate(41.600056, 9.903849)"><g><path d="M 2.9375 0.125 C 2.457031 0.125 2.03125 0.015625 1.65625 -0.203125 C 1.289062 -0.421875 1.003906 -0.722656 0.796875 -1.109375 C 0.585938 -1.503906 0.484375 -1.960938 0.484375 -2.484375 C 0.484375 -3.015625 0.585938 -3.472656 0.796875 -3.859375 C 1.003906 -4.253906 1.289062 -4.5625 1.65625 -4.78125 C 2.03125 -5 2.460938 -5.109375 2.953125 -5.109375 C 3.429688 -5.109375 3.847656 -5 4.203125 -4.78125 C 4.554688 -4.5625 4.828125 -4.273438 5.015625 -3.921875 C 5.203125 -3.566406 5.296875 -3.179688 5.296875 -2.765625 C 5.296875 -2.691406 5.289062 -2.617188 5.28125 -2.546875 C 5.28125 -2.472656 5.28125 -2.390625 5.28125 -2.296875 L 1.3125 -2.296875 C 1.332031 -1.921875 1.421875 -1.601562 1.578125 -1.34375 C 1.734375 -1.09375 1.929688 -0.90625 2.171875 -0.78125 C 2.410156 -0.65625 2.664062 -0.59375 2.9375 -0.59375 C 3.28125 -0.59375 3.566406 -0.671875 3.796875 -0.828125 C 4.035156 -0.992188 4.207031 -1.210938 4.3125 -1.484375 L 5.15625 -1.484375 C 5.019531 -1.023438 4.757812 -0.640625 4.375 -0.328125 C 4 -0.0234375 3.519531 0.125 2.9375 0.125 Z M 2.9375 -4.390625 C 2.53125 -4.390625 2.171875 -4.265625 1.859375 -4.015625 C 1.546875 -3.773438 1.367188 -3.421875 1.328125 -2.953125 L 4.453125 -2.953125 C 4.441406 -3.398438 4.289062 -3.75 4 -4 C 3.707031 -4.257812 3.351562 -4.390625 2.9375 -4.390625 Z M 2.9375 -4.390625 "/></g></g></g><g fill="#545454" fill-opacity="1"><g transform="translate(48.159195, 9.903849)"><g/></g></g><g fill="#545454" fill-opacity="1"><g transform="translate(51.665256, 9.903849)"><g><path d="M 2.984375 0.125 C 2.503906 0.125 2.078125 0.015625 1.703125 -0.203125 C 1.328125 -0.421875 1.03125 -0.722656 0.8125 -1.109375 C 0.59375 -1.503906 0.484375 -1.960938 0.484375 -2.484375 C 0.484375 -3.015625 0.59375 -3.472656 0.8125 -3.859375 C 1.03125 -4.253906 1.328125 -4.5625 1.703125 -4.78125 C 2.078125 -5 2.503906 -5.109375 2.984375 -5.109375 C 3.578125 -5.109375 4.070312 -4.953125 4.46875 -4.640625 C 4.875 -4.328125 5.132812 -3.914062 5.25 -3.40625 L 4.375 -3.40625 C 4.3125 -3.71875 4.148438 -3.957031 3.890625 -4.125 C 3.628906 -4.289062 3.320312 -4.375 2.96875 -4.375 C 2.6875 -4.375 2.421875 -4.300781 2.171875 -4.15625 C 1.929688 -4.019531 1.734375 -3.8125 1.578125 -3.53125 C 1.421875 -3.25 1.34375 -2.898438 1.34375 -2.484375 C 1.34375 -2.078125 1.421875 -1.734375 1.578125 -1.453125 C 1.734375 -1.171875 1.929688 -0.957031 2.171875 -0.8125 C 2.421875 -0.664062 2.6875 -0.59375 2.96875 -0.59375 C 3.320312 -0.59375 3.628906 -0.675781 3.890625 -0.84375 C 4.148438 -1.019531 4.3125 -1.265625 4.375 -1.578125 L 5.25 -1.578125 C 5.144531 -1.078125 4.890625 -0.664062 4.484375 -0.34375 C 4.078125 -0.03125 3.578125 0.125 2.984375 0.125 Z M 2.984375 0.125 "/></g></g></g><g fill="#545454" fill-opacity="1"><g transform="translate(58.234441, 9.903849)"><g><path d="M 0.6875 0 L 0.6875 -7.234375 L 1.53125 -7.234375 L 1.53125 0 Z M 0.6875 0 "/></g></g></g><g fill="#545454" fill-opacity="1"><g transform="translate(61.308648, 9.903849)"><g><path d="M 1.203125 -6.09375 C 1.035156 -6.09375 0.894531 -6.144531 0.78125 -6.25 C 0.675781 -6.363281 0.625 -6.503906 0.625 -6.671875 C 0.625 -6.828125 0.675781 -6.957031 0.78125 -7.0625 C 0.894531 -7.175781 1.035156 -7.234375 1.203125 -7.234375 C 1.367188 -7.234375 1.503906 -7.175781 1.609375 -7.0625 C 1.722656 -6.957031 1.78125 -6.828125 1.78125 -6.671875 C 1.78125 -6.503906 1.722656 -6.363281 1.609375 -6.25 C 1.503906 -6.144531 1.367188 -6.09375 1.203125 -6.09375 Z M 0.78125 0 L 0.78125 -4.984375 L 1.625 -4.984375 L 1.625 0 Z M 0.78125 0 "/></g></g></g><g fill="#545454" fill-opacity="1"><g transform="translate(64.553592, 9.903849)"><g><path d="M 2.984375 0.125 C 2.503906 0.125 2.078125 0.015625 1.703125 -0.203125 C 1.328125 -0.421875 1.03125 -0.722656 0.8125 -1.109375 C 0.59375 -1.503906 0.484375 -1.960938 0.484375 -2.484375 C 0.484375 -3.015625 0.59375 -3.472656 0.8125 -3.859375 C 1.03125 -4.253906 1.328125 -4.5625 1.703125 -4.78125 C 2.078125 -5 2.503906 -5.109375 2.984375 -5.109375 C 3.578125 -5.109375 4.070312 -4.953125 4.46875 -4.640625 C 4.875 -4.328125 5.132812 -3.914062 5.25 -3.40625 L 4.375 -3.40625 C 4.3125 -3.71875 4.148438 -3.957031 3.890625 -4.125 C 3.628906 -4.289062 3.320312 -4.375 2.96875 -4.375 C 2.6875 -4.375 2.421875 -4.300781 2.171875 -4.15625 C 1.929688 -4.019531 1.734375 -3.8125 1.578125 -3.53125 C 1.421875 -3.25 1.34375 -2.898438 1.34375 -2.484375 C 1.34375 -2.078125 1.421875 -1.734375 1.578125 -1.453125 C 1.734375 -1.171875 1.929688 -0.957031 2.171875 -0.8125 C 2.421875 -0.664062 2.6875 -0.59375 2.96875 -0.59375 C 3.320312 -0.59375 3.628906 -0.675781 3.890625 -0.84375 C 4.148438 -1.019531 4.3125 -1.265625 4.375 -1.578125 L 5.25 -1.578125 C 5.144531 -1.078125 4.890625 -0.664062 4.484375 -0.34375 C 4.078125 -0.03125 3.578125 0.125 2.984375 0.125 Z M 2.984375 0.125 "/></g></g></g><g fill="#545454" fill-opacity="1"><g transform="translate(71.122777, 9.903849)"><g><path d="M 0.6875 0 L 0.6875 -7.234375 L 1.53125 -7.234375 L 1.53125 -2.890625 L 3.578125 -4.984375 L 4.609375 -4.984375 L 2.40625 -2.734375 L 4.890625 0 L 3.8125 0 L 1.53125 -2.578125 L 1.53125 0 Z M 0.6875 0 "/></g></g></g><g fill="#545454" fill-opacity="1"><g transform="translate(77.029117, 9.903849)"><g/></g></g><g fill="#545454" fill-opacity="1"><g transform="translate(80.535178, 9.903849)"><g><path d="M 2.65625 0 C 2.207031 0 1.851562 -0.109375 1.59375 -0.328125 C 1.332031 -0.546875 1.203125 -0.945312 1.203125 -1.53125 L 1.203125 -4.265625 L 0.328125 -4.265625 L 0.328125 -4.984375 L 1.203125 -4.984375 L 1.3125 -6.171875 L 2.046875 -6.171875 L 2.046875 -4.984375 L 3.5 -4.984375 L 3.5 -4.265625 L 2.046875 -4.265625 L 2.046875 -1.53125 C 2.046875 -1.21875 2.109375 -1.003906 2.234375 -0.890625 C 2.359375 -0.773438 2.582031 -0.71875 2.90625 -0.71875 L 3.421875 -0.71875 L 3.421875 0 Z M 2.65625 0 "/></g></g></g><g fill="#545454" fill-opacity="1"><g transform="translate(85.125769, 9.903849)"><g><path d="M 2.96875 0.125 C 2.5 0.125 2.078125 0.0195312 1.703125 -0.1875 C 1.328125 -0.40625 1.03125 -0.710938 0.8125 -1.109375 C 0.59375 -1.503906 0.484375 -1.960938 0.484375 -2.484375 C 0.484375 -3.015625 0.59375 -3.472656 0.8125 -3.859375 C 1.03125 -4.253906 1.328125 -4.5625 1.703125 -4.78125 C 2.085938 -5 2.515625 -5.109375 2.984375 -5.109375 C 3.453125 -5.109375 3.875 -5 4.25 -4.78125 C 4.625 -4.5625 4.921875 -4.253906 5.140625 -3.859375 C 5.359375 -3.472656 5.46875 -3.015625 5.46875 -2.484375 C 5.46875 -1.960938 5.351562 -1.503906 5.125 -1.109375 C 4.90625 -0.710938 4.609375 -0.40625 4.234375 -0.1875 C 3.859375 0.0195312 3.4375 0.125 2.96875 0.125 Z M 2.96875 -0.609375 C 3.25 -0.609375 3.515625 -0.675781 3.765625 -0.8125 C 4.015625 -0.957031 4.210938 -1.171875 4.359375 -1.453125 C 4.515625 -1.734375 4.59375 -2.078125 4.59375 -2.484375 C 4.59375 -2.898438 4.519531 -3.25 4.375 -3.53125 C 4.226562 -3.8125 4.03125 -4.019531 3.78125 -4.15625 C 3.53125 -4.300781 3.265625 -4.375 2.984375 -4.375 C 2.691406 -4.375 2.421875 -4.300781 2.171875 -4.15625 C 1.929688 -4.019531 1.734375 -3.8125 1.578125 -3.53125 C 1.421875 -3.25 1.34375 -2.898438 1.34375 -2.484375 C 1.34375 -2.078125 1.421875 -1.734375 1.578125 -1.453125 C 1.734375 -1.171875 1.929688 -0.957031 2.171875 -0.8125 C 2.421875 -0.675781 2.6875 -0.609375 2.96875 -0.609375 Z M 2.96875 -0.609375 "/></g></g></g><g fill="#545454" fill-opacity="1"><g transform="translate(91.915899, 9.903849)"><g/></g></g><g fill="#545454" fill-opacity="1"><g transform="translate(95.421961, 9.903849)"><g><path d="M 2.65625 0 C 2.207031 0 1.851562 -0.109375 1.59375 -0.328125 C 1.332031 -0.546875 1.203125 -0.945312 1.203125 -1.53125 L 1.203125 -4.265625 L 0.328125 -4.265625 L 0.328125 -4.984375 L 1.203125 -4.984375 L 1.3125 -6.171875 L 2.046875 -6.171875 L 2.046875 -4.984375 L 3.5 -4.984375 L 3.5 -4.265625 L 2.046875 -4.265625 L 2.046875 -1.53125 C 2.046875 -1.21875 2.109375 -1.003906 2.234375 -0.890625 C 2.359375 -0.773438 2.582031 -0.71875 2.90625 -0.71875 L 3.421875 -0.71875 L 3.421875 0 Z M 2.65625 0 "/></g></g></g><g fill="#545454" fill-opacity="1"><g transform="translate(100.012552, 9.903849)"><g><path d="M 2.96875 0.125 C 2.5 0.125 2.078125 0.0195312 1.703125 -0.1875 C 1.328125 -0.40625 1.03125 -0.710938 0.8125 -1.109375 C 0.59375 -1.503906 0.484375 -1.960938 0.484375 -2.484375 C 0.484375 -3.015625 0.59375 -3.472656 0.8125 -3.859375 C 1.03125 -4.253906 1.328125 -4.5625 1.703125 -4.78125 C 2.085938 -5 2.515625 -5.109375 2.984375 -5.109375 C 3.453125 -5.109375 3.875 -5 4.25 -4.78125 C 4.625 -4.5625 4.921875 -4.253906 5.140625 -3.859375 C 5.359375 -3.472656 5.46875 -3.015625 5.46875 -2.484375 C 5.46875 -1.960938 5.351562 -1.503906 5.125 -1.109375 C 4.90625 -0.710938 4.609375 -0.40625 4.234375 -0.1875 C 3.859375 0.0195312 3.4375 0.125 2.96875 0.125 Z M 2.96875 -0.609375 C 3.25 -0.609375 3.515625 -0.675781 3.765625 -0.8125 C 4.015625 -0.957031 4.210938 -1.171875 4.359375 -1.453125 C 4.515625 -1.734375 4.59375 -2.078125 4.59375 -2.484375 C 4.59375 -2.898438 4.519531 -3.25 4.375 -3.53125 C 4.226562 -3.8125 4.03125 -4.019531 3.78125 -4.15625 C 3.53125 -4.300781 3.265625 -4.375 2.984375 -4.375 C 2.691406 -4.375 2.421875 -4.300781 2.171875 -4.15625 C 1.929688 -4.019531 1.734375 -3.8125 1.578125 -3.53125 C 1.421875 -3.25 1.34375 -2.898438 1.34375 -2.484375 C 1.34375 -2.078125 1.421875 -1.734375 1.578125 -1.453125 C 1.734375 -1.171875 1.929688 -0.957031 2.171875 -0.8125 C 2.421875 -0.675781 2.6875 -0.609375 2.96875 -0.609375 Z M 2.96875 -0.609375 "/></g></g></g><g fill="#545454" fill-opacity="1"><g transform="translate(106.60166, 9.903849)"><g><path d="M 2.65625 0 C 2.207031 0 1.851562 -0.109375 1.59375 -0.328125 C 1.332031 -0.546875 1.203125 -0.945312 1.203125 -1.53125 L 1.203125 -4.265625 L 0.328125 -4.265625 L 0.328125 -4.984375 L 1.203125 -4.984375 L 1.3125 -6.171875 L 2.046875 -6.171875 L 2.046875 -4.984375 L 3.5 -4.984375 L 3.5 -4.265625 L 2.046875 -4.265625 L 2.046875 -1.53125 C 2.046875 -1.21875 2.109375 -1.003906 2.234375 -0.890625 C 2.359375 -0.773438 2.582031 -0.71875 2.90625 -0.71875 L 3.421875 -0.71875 L 3.421875 0 Z M 2.65625 0 "/></g></g></g><g fill="#545454" fill-opacity="1"><g transform="translate(111.332965, 9.903849)"><g><path d="M 2.34375 0.125 C 1.9375 0.125 1.59375 0.0546875 1.3125 -0.078125 C 1.039062 -0.222656 0.835938 -0.410156 0.703125 -0.640625 C 0.566406 -0.878906 0.5 -1.140625 0.5 -1.421875 C 0.5 -1.929688 0.691406 -2.320312 1.078125 -2.59375 C 1.472656 -2.863281 2.003906 -3 2.671875 -3 L 4.015625 -3 L 4.015625 -3.0625 C 4.015625 -3.5 3.898438 -3.828125 3.671875 -4.046875 C 3.441406 -4.273438 3.140625 -4.390625 2.765625 -4.390625 C 2.429688 -4.390625 2.144531 -4.304688 1.90625 -4.140625 C 1.675781 -3.972656 1.53125 -3.734375 1.46875 -3.421875 L 0.609375 -3.421875 C 0.640625 -3.785156 0.757812 -4.09375 0.96875 -4.34375 C 1.175781 -4.59375 1.4375 -4.78125 1.75 -4.90625 C 2.070312 -5.039062 2.410156 -5.109375 2.765625 -5.109375 C 3.460938 -5.109375 3.984375 -4.921875 4.328125 -4.546875 C 4.679688 -4.171875 4.859375 -3.675781 4.859375 -3.0625 L 4.859375 0 L 4.109375 0 L 4.0625 -0.890625 C 3.914062 -0.609375 3.707031 -0.367188 3.4375 -0.171875 C 3.164062 0.0234375 2.800781 0.125 2.34375 0.125 Z M 2.484375 -0.59375 C 2.804688 -0.59375 3.082031 -0.675781 3.3125 -0.84375 C 3.539062 -1.007812 3.710938 -1.226562 3.828125 -1.5 C 3.953125 -1.769531 4.015625 -2.050781 4.015625 -2.34375 L 2.75 -2.34375 C 2.25 -2.34375 1.894531 -2.257812 1.6875 -2.09375 C 1.488281 -1.925781 1.390625 -1.710938 1.390625 -1.453125 C 1.390625 -1.191406 1.484375 -0.984375 1.671875 -0.828125 C 1.859375 -0.671875 2.128906 -0.59375 2.484375 -0.59375 Z M 2.484375 -0.59375 "/></g></g></g><g fill="#545454" fill-opacity="1"><g transform="translate(117.610896, 9.903849)"><g><path d="M 0.6875 0 L 0.6875 -7.234375 L 1.53125 -7.234375 L 1.53125 0 Z M 0.6875 0 "/></g></g></g><g fill="#545454" fill-opacity="1"><g transform="translate(120.685104, 9.903849)"><g/></g></g><g fill="#545454" fill-opacity="1"><g transform="translate(124.191165, 9.903849)"><g><path d="M 2.65625 0 C 2.207031 0 1.851562 -0.109375 1.59375 -0.328125 C 1.332031 -0.546875 1.203125 -0.945312 1.203125 -1.53125 L 1.203125 -4.265625 L 0.328125 -4.265625 L 0.328125 -4.984375 L 1.203125 -4.984375 L 1.3125 -6.171875 L 2.046875 -6.171875 L 2.046875 -4.984375 L 3.5 -4.984375 L 3.5 -4.265625 L 2.046875 -4.265625 L 2.046875 -1.53125 C 2.046875 -1.21875 2.109375 -1.003906 2.234375 -0.890625 C 2.359375 -0.773438 2.582031 -0.71875 2.90625 -0.71875 L 3.421875 -0.71875 L 3.421875 0 Z M 2.65625 0 "/></g></g></g><g fill="#545454" fill-opacity="1"><g transform="translate(128.92247, 9.903849)"><g><path d="M 0.6875 0 L 0.6875 -4.984375 L 1.453125 -4.984375 L 1.53125 -4.03125 C 1.6875 -4.351562 1.921875 -4.613281 2.234375 -4.8125 C 2.546875 -5.007812 2.929688 -5.109375 3.390625 -5.109375 L 3.390625 -4.21875 L 3.171875 -4.21875 C 2.867188 -4.21875 2.59375 -4.164062 2.34375 -4.0625 C 2.101562 -3.957031 1.90625 -3.78125 1.75 -3.53125 C 1.601562 -3.289062 1.53125 -2.953125 1.53125 -2.515625 L 1.53125 0 Z M 0.6875 0 "/></g></g></g><g fill="#545454" fill-opacity="1"><g transform="translate(133.412749, 9.903849)"><g><path d="M 2.515625 0.125 C 1.921875 0.125 1.445312 -0.0507812 1.09375 -0.40625 C 0.75 -0.769531 0.578125 -1.320312 0.578125 -2.0625 L 0.578125 -4.984375 L 1.421875 -4.984375 L 1.421875 -2.15625 C 1.421875 -1.125 1.847656 -0.609375 2.703125 -0.609375 C 3.140625 -0.609375 3.5 -0.757812 3.78125 -1.0625 C 4.0625 -1.375 4.203125 -1.820312 4.203125 -2.40625 L 4.203125 -4.984375 L 5.046875 -4.984375 L 5.046875 0 L 4.296875 0 L 4.234375 -0.890625 C 4.078125 -0.578125 3.84375 -0.328125 3.53125 -0.140625 C 3.226562 0.0351562 2.890625 0.125 2.515625 0.125 Z M 2.515625 0.125 "/></g></g></g><g fill="#545454" fill-opacity="1"><g transform="translate(140.002015, 9.903849)"><g><path d="M 2.609375 0.125 C 2.003906 0.125 1.503906 -0.0234375 1.109375 -0.328125 C 0.710938 -0.628906 0.484375 -1.039062 0.421875 -1.5625 L 1.28125 -1.5625 C 1.332031 -1.300781 1.472656 -1.070312 1.703125 -0.875 C 1.929688 -0.6875 2.234375 -0.59375 2.609375 -0.59375 C 2.960938 -0.59375 3.222656 -0.664062 3.390625 -0.8125 C 3.554688 -0.96875 3.640625 -1.148438 3.640625 -1.359375 C 3.640625 -1.660156 3.53125 -1.859375 3.3125 -1.953125 C 3.101562 -2.054688 2.800781 -2.148438 2.40625 -2.234375 C 2.132812 -2.285156 1.863281 -2.359375 1.59375 -2.453125 C 1.332031 -2.554688 1.109375 -2.703125 0.921875 -2.890625 C 0.742188 -3.078125 0.65625 -3.316406 0.65625 -3.609375 C 0.65625 -4.046875 0.816406 -4.40625 1.140625 -4.6875 C 1.460938 -4.96875 1.90625 -5.109375 2.46875 -5.109375 C 2.988281 -5.109375 3.414062 -4.972656 3.75 -4.703125 C 4.09375 -4.441406 4.289062 -4.066406 4.34375 -3.578125 L 3.515625 -3.578125 C 3.484375 -3.828125 3.375 -4.023438 3.1875 -4.171875 C 3 -4.316406 2.753906 -4.390625 2.453125 -4.390625 C 2.148438 -4.390625 1.914062 -4.328125 1.75 -4.203125 C 1.582031 -4.078125 1.5 -3.910156 1.5 -3.703125 C 1.5 -3.492188 1.601562 -3.332031 1.8125 -3.21875 C 2.03125 -3.101562 2.320312 -3.007812 2.6875 -2.9375 C 2.988281 -2.863281 3.28125 -2.78125 3.5625 -2.6875 C 3.84375 -2.59375 4.070312 -2.445312 4.25 -2.25 C 4.425781 -2.0625 4.515625 -1.785156 4.515625 -1.421875 C 4.515625 -0.972656 4.34375 -0.601562 4 -0.3125 C 3.65625 -0.0195312 3.191406 0.125 2.609375 0.125 Z M 2.609375 0.125 "/></g></g></g><g fill="#545454" fill-opacity="1"><g transform="translate(145.647062, 9.903849)"><g><path d="M 2.65625 0 C 2.207031 0 1.851562 -0.109375 1.59375 -0.328125 C 1.332031 -0.546875 1.203125 -0.945312 1.203125 -1.53125 L 1.203125 -4.265625 L 0.328125 -4.265625 L 0.328125 -4.984375 L 1.203125 -4.984375 L 1.3125 -6.171875 L 2.046875 -6.171875 L 2.046875 -4.984375 L 3.5 -4.984375 L 3.5 -4.265625 L 2.046875 -4.265625 L 2.046875 -1.53125 C 2.046875 -1.21875 2.109375 -1.003906 2.234375 -0.890625 C 2.359375 -0.773438 2.582031 -0.71875 2.90625 -0.71875 L 3.421875 -0.71875 L 3.421875 0 Z M 2.65625 0 "/></g></g></g></g></g></svg>